<svg xmlns="http://www.w3.org/2000/svg" xmlns:xlink="http://www.w3.org/1999/xlink" id="Ebene_1" x="0px" y="0px" viewBox="0 0 78.5 27.2" style="enable-background:new 0 0 78.5 27.2;" xml:space="preserve">
<path d="M77.8,13.1C77.8,13,77.8,13,77.8,13.1c-0.1-0.2-0.2-0.4-0.3-0.5c0,0,0,0,0,0L67,1.1c-0.6-0.6-1.5-0.7-2.1-0.1  c-0.6,0.6-0.7,1.5-0.1,2.1L73,12H1.5C0.7,12,0,12.7,0,13.5S0.7,15,1.5,15H73c0,0,0,0,0,0l-8,9.1c-0.6,0.6-0.5,1.6,0.1,2.1  c0.3,0.3,0.6,0.4,1,0.4c0.4,0,0.8-0.2,1.1-0.5l10.3-11.6c0.1-0.1,0.2-0.2,0.2-0.3c0,0,0,0,0-0.1c0.1-0.2,0.1-0.3,0.1-0.5  c0,0,0,0,0-0.1C77.9,13.4,77.8,13.2,77.8,13.1z"></path>
</svg>